<?xml version="1.0" encoding="utf-8"?>
<!-- Generator: Adobe Illustrator 22.0.1, SVG Export Plug-In . SVG Version: 6.00 Build 0)  -->
<svg version="1.1" xmlns="http://www.w3.org/2000/svg" xmlns:xlink="http://www.w3.org/1999/xlink" x="0px" y="0px"
	 viewBox="0 0 566.9 566.9" style="enable-background:new 0 0 566.9 566.9;" xml:space="preserve">
<style type="text/css">
	.st0{fill:url(#SVGID_1_);}
	.st1{clip-path:url(#SVGID_3_);}
	.st2{fill:#FFFFFF;}
</style>
<g id="Layer_2">
	<linearGradient id="SVGID_1_" gradientUnits="userSpaceOnUse" x1="1.15" y1="284.4646" x2="568.0791" y2="284.4646">
		<stop  offset="0" style="stop-color:#F93702"/>
		<stop  offset="1" style="stop-color:#FF6600"/>
	</linearGradient>
	<circle class="st0" cx="284.6" cy="284.5" r="283.5"/>
</g>
<g id="Layer_1">
	<g>
		<defs>
			<rect id="SVGID_2_" x="113.4" y="113.4" width="340.2" height="340.2"/>
		</defs>
		<clipPath id="SVGID_3_">
			<use xlink:href="#SVGID_2_"  style="overflow:visible;"/>
		</clipPath>
		<g class="st1">
			<path class="st2" d="M266.5,249.5h-17v22.7c-0.1,3.1-2.8,5.6-5.8,5.5c-3-0.1-5.4-2.5-5.5-5.5v-28.4c0-3.1,2.5-5.6,5.6-5.6h22.6
				c3.1,0.1,5.6,2.8,5.5,5.8C271.9,247,269.5,249.3,266.5,249.5z M266.5,277.8c-3.1,0-5.6-2.5-5.6-5.6v-5.6c0.1-3.1,2.8-5.6,5.8-5.5
				c3,0.1,5.4,2.5,5.5,5.5v5.6C272.1,275.3,269.6,277.8,266.5,277.8z M364.7,170.1h-60.9l-6.4,17h74.1L364.7,170.1z M335.2,124.7
				h-1.3l-4.2,34h9.8L335.2,124.7z M385.5,198.5v102.1c-0.1,3.1-2.8,5.6-5.8,5.5c-3-0.1-5.4-2.5-5.5-5.5V198.5h-79.4v73.7
				c-0.1,3.1-2.8,5.6-5.8,5.5c-3-0.1-5.4-2.5-5.5-5.5v-73.7c-3.1-0.1-5.6-2.8-5.5-5.8c0.1-3,2.5-5.4,5.5-5.5h1.7l9.2-24.7
				c0.8-2.2,3-3.7,5.3-3.7h18.3l5.1-40.4c0.4-2.8,2.8-4.9,5.6-4.9h11.4c2.9,0,5.3,2.1,5.6,4.9l5.1,40.4h17.6c2.3,0,4.4,1.4,5.3,3.6
				l9.9,24.8h1.9c3.1,0.1,5.6,2.8,5.5,5.8C390.9,196,388.5,198.3,385.5,198.5L385.5,198.5z M306.2,215.5c0.1-3.1,2.8-5.6,5.8-5.5
				c3,0.1,5.4,2.5,5.5,5.5v11.4c-0.1,3.1-2.8,5.6-5.8,5.5c-3-0.1-5.4-2.5-5.5-5.5V215.5z M311.8,243.8c3.1,0,5.6,2.5,5.6,5.6v11.4
				c-0.1,3.1-2.8,5.6-5.8,5.5c-3-0.1-5.4-2.5-5.5-5.5v-11.4C306.2,246.3,308.7,243.8,311.8,243.8L311.8,243.8z M328.8,215.5
				c-0.1-3.1,2.4-5.8,5.5-5.8c3.1-0.1,5.8,2.4,5.8,5.5v0.4v11.4c0.1,3.1-2.4,5.8-5.5,5.8c-3.1,0.1-5.8-2.4-5.8-5.5
				c0-0.1,0-0.3,0-0.4V215.5z M334.5,243.8c3.1,0,5.6,2.5,5.6,5.6v11.4c0.1,3.1-2.4,5.8-5.5,5.8c-3.1,0.1-5.8-2.4-5.8-5.5
				c0-0.1,0-0.3,0-0.4v-11.4C328.8,246.3,331.4,243.8,334.5,243.8L334.5,243.8z M351.5,249.5c-0.1-3.1,2.4-5.8,5.5-5.8
				c3.1-0.1,5.8,2.4,5.8,5.5v0.4v11.4c-0.1,3.1-2.8,5.6-5.8,5.5c-3-0.1-5.4-2.5-5.5-5.5V249.5z M361.2,279.4
				c0.5,0.5,0.9,1.2,1.2,1.9c1.2,2.8-0.1,6.2-3,7.4c-1.4,0.6-3,0.6-4.4,0c-0.7-0.3-1.3-0.7-1.9-1.2c-1.1-1.1-1.7-2.5-1.7-4
				c0-0.8,0.1-1.5,0.4-2.2c0.3-0.7,0.7-1.3,1.2-1.9C355.4,277.4,358.9,277.4,361.2,279.4L361.2,279.4z M351.5,215.5
				c0.1-3.1,2.8-5.6,5.8-5.5c3,0.1,5.4,2.5,5.5,5.5v11.4c-0.1,3.1-2.8,5.6-5.8,5.5c-3-0.1-5.4-2.5-5.5-5.5V215.5z M233.3,377.3
				c-0.4-0.7-0.7-0.8-1-0.9l-20.1-2.4h-0.1c-0.2,0-0.4,0.1-0.5,0.3c-0.4,0.4-0.6,0.9-0.6,1.5v2.8c0,1,0.6,1.7,1.2,1.7h20.4
				c0.4-0.1,0.8-0.3,0.9-0.7C233.8,378.7,233.7,377.9,233.3,377.3L233.3,377.3z M232.5,391.5h-20.4c-6.9,0-12.4-5.8-12.4-13v-2.8
				c0-3.8,1.6-7.4,4.4-9.9c2.6-2.3,6-3.4,9.5-3l20.1,2.4c3.5,0.4,6.7,2.4,8.7,5.3c3.1,4.5,3.5,9.9,1.1,14.3
				C241.4,388.9,237.1,391.5,232.5,391.5L232.5,391.5z M260.9,379.8l1,4.7c0.2,0.6,0.7,1,1.3,1h40.5c0.6,0.1,1.2-0.4,1.3-1l1-4.7
				H260.9z M316.2,386.9c-1.3,5.8-6.5,10-12.4,10h-40.5c-6,0-11.2-4.2-12.4-10l-1.5-7.4c-0.5-2.6,0.1-5.4,1.9-7.4
				c1.7-2.2,4.4-3.4,7.1-3.4h50.5c2.8,0,5.4,1.2,7.2,3.4c1.7,2.1,2.4,4.9,1.9,7.5L316.2,386.9z M356.6,375.6c0-0.5-0.2-1-0.6-1.3
				c-0.2-0.2-0.5-0.3-0.8-0.3h-0.1l-20.9,2.4c-0.4,0.1-0.7,0.3-0.9,0.6c-0.9,1.3-0.6,2.2-0.4,2.4c0.2,0.4,0.6,0.8,1.2,0.8h21.2
				c0.8-0.1,1.4-0.8,1.3-1.7L356.6,375.6z M355.3,391.5h-21.2c-4.7,0-9.1-2.7-11.2-6.9c-2.3-4.4-1.9-9.8,1-13.8
				c2.1-3.1,5.4-5.1,9.1-5.6l20.9-2.4c3.5-0.4,7.1,0.7,9.8,3.1c2.8,2.5,4.4,6.1,4.4,9.8v2.8C368,385.6,362.2,391.5,355.3,391.5z
				 M442.3,419.5h-11.4v22.6h11.4V419.5z M419.6,419.5h-11.4v22.6h11.4V419.5z M373.9,412.1c-2.5,1.2-5.3,1.9-8.1,1.9H201.2
				c-2.8,0-5.6-0.6-8.1-1.9c0.7,4.2,4,7.5,8.1,7.5h164.6C369.9,419.5,373.2,416.3,373.9,412.1z M374.2,382.1
				c0-12.9-2.5-23.6-6.5-27.8l-7.9-8.2l-4.4,2.2c-4.7,2.4-9.9,3.8-15.2,3.8H226.8c-5.3,0-10.5-1.3-15.3-3.8l-4.4-2.2l-7.8,8.3
				c-4.9,5.1-6.6,17.7-6.6,27.8v11.4c0,5,3.8,9,8.4,9h164.6c4.6,0,8.4-4.1,8.4-9L374.2,382.1L374.2,382.1z M379.9,333.4V330h-6.3
				v1.7c0,0.6-0.1,1.2-0.1,1.7L379.9,333.4L379.9,333.4z M347,319.6c-4.6-11.6-15.3-19.1-27.2-19.1h-72.8
				c-11.9,0-22.6,7.5-27.2,19.1l-6.7,16.8l3.6,1.9c3.1,1.6,6.5,2.4,9.9,2.4h113.4c3.5,0,6.9-0.8,9.9-2.4l3.6-1.9L347,319.6z
				 M193.3,331.6V330H187v3.4h6.4C193.4,332.8,193.3,332.2,193.3,331.6L193.3,331.6z M209.7,440.5c-0.1,0.8,0.6,1.6,1.4,1.7h14.2
				c0.8-0.1,1.5-0.8,1.4-1.7v-9.6h-17V440.5z M329,442.3c-0.1-0.6-0.1-1.2-0.2-1.7V431h-90.7v9.6c0,0.6-0.1,1.2-0.2,1.7H329z
				 M340.2,440.5c-0.1,0.8,0.6,1.6,1.4,1.7h14.2c0.8-0.1,1.5-0.8,1.4-1.7v-9.6h-17L340.2,440.5z M158.7,430.9h-11.4v11.4h11.4V430.9
				z M136.1,430.9h-11.4v11.4h11.4V430.9z M447.9,453.5H119c-3.1,0-5.6-2.5-5.6-5.6v-45.4c0-3.1,2.5-5.6,5.6-5.6h5.6V147.4
				c0-3.1,2.6-5.6,5.7-5.6c0.7,0,1.3,0.1,2,0.4l90.7,34c0.1,0,0.1,0.1,0.1,0.1c0.4,0.2,0.8,0.4,1.2,0.7c0.3,0.1,0.5,0.3,0.7,0.5
				c0.3,0.3,0.4,0.6,0.6,0.9c0.2,0.3,0.4,0.6,0.6,0.8c0.1,0.3,0.2,0.6,0.2,0.9c0.1,0.4,0.3,0.8,0.3,1.3v0.1v96.4
				c-0.1,3.1-2.8,5.6-5.8,5.5c-3-0.1-5.4-2.5-5.5-5.5v-92.5L136,155.6v241.3h28.4c3.1-0.1,5.8,2.4,5.8,5.5c0.1,3.1-2.4,5.8-5.5,5.8
				c-0.1,0-0.3,0-0.4,0h-39.6v11.4h39.7c3.1,0,5.6,2.5,5.6,5.6v17h28.5c-0.1-0.6-0.1-1.2-0.2-1.7v-9.9c-9.6-1.4-17.1-9.8-17.1-20.1
				v-14.1c0.1-0.3,0.1-0.6,0.2-0.9c-0.1-0.6-0.1-1.2-0.2-1.9v-11.4c0-9.5,1.3-26.8,9.8-35.7l1.7-1.7h-7.8c-5.1-0.1-9.2-4.2-9.2-9.4
				V328c-0.1-5.1,4.1-9.3,9.2-9.4h10.6c4.9,0.1,8.9,3.9,9.1,8.8l4.8-12c6.4-16,21.2-26.2,37.7-26.2h72.7c16.6,0,31.4,10.3,37.7,26.2
				l4.8,12c0.2-4.9,4.2-8.7,9-8.8H382c5.1,0.1,9.2,4.2,9.2,9.4v7.4c0.1,5.1-4.1,9.3-9.2,9.4h-7.8l1.7,1.7c8.4,8.9,9.7,26.1,9.7,35.7
				v11.4c0,0.6-0.1,1.3-0.2,1.9c0.1,0.3,0.1,0.6,0.2,0.9v14.2c0,10.3-7.4,18.7-17,20.1v9.9c0,0.6-0.1,1.2-0.2,1.7h28.5v-28.4
				c0-3.1,2.5-5.6,5.6-5.6h39.7v-11.4h-39.7c-3.1-0.1-5.6-2.8-5.5-5.8c0.1-3,2.5-5.4,5.5-5.5h39.7V266.5h-39.7
				c-3.1-0.1-5.6-2.8-5.5-5.8c0.1-3,2.5-5.4,5.5-5.5h22.7v-5.6h-22.7c-3.1-0.1-5.6-2.8-5.5-5.8c0.1-3,2.5-5.4,5.5-5.5h28.4
				c3.1,0,5.6,2.5,5.6,5.6v11.4h11.4c3.1,0,5.6,2.5,5.6,5.6V448C453.5,451,451,453.5,447.9,453.5L447.9,453.5z M396.9,317.5
				c0.1-3.1,2.8-5.6,5.8-5.5c3,0.1,5.4,2.5,5.5,5.5v11.4c0.1,3.1-2.4,5.8-5.5,5.8c-3.1,0.1-5.8-2.4-5.8-5.5c0-0.1,0-0.3,0-0.4V317.5
				z M402.5,345.8c3.1,0,5.6,2.5,5.6,5.6v11.4c-0.1,3.1-2.8,5.6-5.8,5.5c-3-0.1-5.4-2.5-5.5-5.5v-11.4
				C396.9,348.4,399.4,345.8,402.5,345.8L402.5,345.8z M396.9,283.5c0.1-3.1,2.8-5.6,5.8-5.5c3,0.1,5.4,2.5,5.5,5.5v11.4
				c-0.1,3.1-2.8,5.6-5.8,5.5c-3-0.1-5.4-2.5-5.5-5.5V283.5z M419.5,317.5c0.1-3.1,2.8-5.6,5.8-5.5c3,0.1,5.4,2.5,5.5,5.5v11.4
				c0.1,3.1-2.4,5.8-5.5,5.8c-3.1,0.1-5.8-2.4-5.8-5.5c0-0.1,0-0.3,0-0.4V317.5z M425.3,345.8c3.1,0,5.6,2.5,5.6,5.6v11.4
				c-0.1,3.1-2.8,5.6-5.8,5.5c-3-0.1-5.4-2.5-5.5-5.5v-11.3C419.5,348.4,422.1,345.8,425.3,345.8
				C425.2,345.8,425.2,345.8,425.3,345.8L425.3,345.8z M419.5,283.5c0.1-3.1,2.8-5.6,5.8-5.5c3,0.1,5.4,2.5,5.5,5.5v11.4
				c-0.1,3.1-2.8,5.6-5.8,5.5c-3-0.1-5.4-2.5-5.5-5.5V283.5z M204.1,243.8c0.1,3.1-2.4,5.8-5.5,5.8c-3.1,0.1-5.8-2.4-5.8-5.5
				c0-0.1,0-0.3,0-0.4v-11.4c-0.1-3.1,2.4-5.8,5.5-5.8c3.1-0.1,5.8,2.4,5.8,5.5v0.4V243.8z M198.5,215.5c-3.1,0-5.6-2.5-5.6-5.6
				v-11.4c-0.1-3.1,2.4-5.8,5.5-5.8c3.1-0.1,5.8,2.4,5.8,5.5v0.4v11.4C204.1,212.9,201.5,215.5,198.5,215.5z M204.1,277.8
				c0.1,3.1-2.4,5.8-5.5,5.8c-3.1,0.1-5.8-2.4-5.8-5.5c0-0.1,0-0.3,0-0.4v-11.4c-0.1-3.1,2.4-5.8,5.5-5.8c3.1-0.1,5.8,2.4,5.8,5.5
				v0.4V277.8z M203.7,302.6c-0.3,0.7-0.7,1.3-1.2,1.9c-0.6,0.5-1.2,0.9-1.9,1.2c-1.3,0.6-3,0.6-4.3,0c-0.7-0.3-1.3-0.7-1.9-1.2
				c-0.5-0.6-0.9-1.2-1.2-1.9c-0.3-0.6-0.4-1.4-0.4-2.2c-0.1-3.1,2.4-5.8,5.5-5.8c3.1-0.1,5.8,2.4,5.8,5.5v0.4
				C204.1,301.2,203.9,301.9,203.7,302.6L203.7,302.6z M181.4,243.8c0.1,3.1-2.4,5.8-5.5,5.8c-3.1,0.1-5.8-2.4-5.8-5.5
				c0-0.1,0-0.3,0-0.4v-11.4c0.1-3.1,2.8-5.6,5.8-5.5c3,0.1,5.4,2.5,5.5,5.5V243.8z M175.7,215.5c-3.1,0-5.6-2.5-5.6-5.6v-11.4
				c-0.1-3.1,2.4-5.8,5.5-5.8c3.1-0.1,5.8,2.4,5.8,5.5v0.4v11.4C181.4,212.9,178.9,215.4,175.7,215.5z M181.4,277.8
				c0.1,3.1-2.4,5.8-5.5,5.8c-3.1,0.1-5.8-2.4-5.8-5.5c0-0.1,0-0.3,0-0.4v-11.4c0.1-3.1,2.8-5.6,5.8-5.5c3,0.1,5.4,2.5,5.5,5.5
				V277.8z M181.4,306.2c0.1,3.1-2.4,5.8-5.5,5.8c-3.1,0.1-5.8-2.4-5.8-5.5c0-0.1,0-0.3,0-0.4v-5.6c0.1-3.1,2.8-5.6,5.8-5.5
				c3,0.1,5.4,2.5,5.5,5.5V306.2z M158.7,243.8c0.1,3.1-2.4,5.8-5.5,5.8c-3.1,0.1-5.8-2.4-5.8-5.5c0-0.1,0-0.3,0-0.4v-11.4
				c-0.1-3.1,2.4-5.8,5.5-5.8c3.1-0.1,5.8,2.4,5.8,5.5v0.4V243.8z M153.1,215.5c-3.1,0-5.6-2.5-5.7-5.6v-11.4
				c-0.1-3.1,2.4-5.8,5.5-5.8c3.1-0.1,5.8,2.4,5.8,5.5v0.4v11.4C158.7,212.9,156.2,215.5,153.1,215.5z M158.7,277.8
				c0.1,3.1-2.4,5.8-5.5,5.8c-3.1,0.1-5.8-2.4-5.8-5.5c0-0.1,0-0.3,0-0.4v-11.4c-0.1-3.1,2.4-5.8,5.5-5.8c3.1-0.1,5.8,2.4,5.8,5.5
				v0.4V277.8z M158.7,311.8c0.1,3.1-2.4,5.8-5.5,5.8c-3.1,0.1-5.8-2.4-5.8-5.5c0-0.1,0-0.3,0-0.4v-11.3c0.1-3.1,2.8-5.6,5.8-5.5
				c3,0.1,5.4,2.5,5.5,5.5V311.8z M158.7,345.8c-0.1,3.1-2.8,5.6-5.8,5.5c-3-0.1-5.4-2.5-5.5-5.5v-11.3c-0.1-3.1,2.4-5.8,5.5-5.8
				c3.1-0.1,5.8,2.4,5.8,5.5v0.4V345.8z M158.7,379.8c0.1,3.1-2.4,5.8-5.5,5.8c-3.1,0.1-5.8-2.4-5.8-5.5c0-0.1,0-0.3,0-0.4v-11.3
				c0.1-3.1,2.8-5.6,5.8-5.5c3,0.1,5.4,2.5,5.5,5.5V379.8z"/>
		</g>
	</g>
</g>
</svg>
