<?xml version="1.0" encoding="utf-8"?>
<!-- Generator: Adobe Illustrator 22.0.1, SVG Export Plug-In . SVG Version: 6.00 Build 0)  -->
<svg version="1.1" xmlns="http://www.w3.org/2000/svg" xmlns:xlink="http://www.w3.org/1999/xlink" x="0px" y="0px"
	 viewBox="0 0 566.9 566.9" style="enable-background:new 0 0 566.9 566.9;" xml:space="preserve">
<style type="text/css">
	.st0{fill:url(#SVGID_1_);}
	.st1{fill:#FFFFFF;}
</style>
<g id="Layer_1">
	<g id="Layer_2_1_">

			<linearGradient id="SVGID_1_" gradientUnits="userSpaceOnUse" x1="0" y1="284.5" x2="567" y2="284.5" gradientTransform="matrix(1 0 0 -1 0 568)">
			<stop  offset="0" style="stop-color:#F93702"/>
			<stop  offset="1" style="stop-color:#FF6600"/>
		</linearGradient>
		<circle class="st0" cx="283.5" cy="283.5" r="283.5"/>
	</g>
	<g>
		<path class="st1" d="M281.6,431.5c-0.8-0.5-1.6-0.9-2.3-1.4c-3.1-1.9-5.5-4.6-5.5-8.4c0-4.8,0.7-9.5,1.1-14.2c0-0.4,0.1-0.8,0-1.2
			c-0.4-4.2-1.3-8.5-1.1-12.7c0.2-4.3,0.8-8.5-0.1-12.8c-0.5-2.4-0.1-4.9-0.1-7.4c0-6.2,4.6-10.9,10.9-10.9c11.6,0,23.2,0,34.8,0
			c1.1,0,2.2,0,3.5,0c0.1-1.2,0.1-2.1,0.2-3c0.4-7.4,0.9-14.9,0-22.3c-0.1-1,0-2,0-3.1c0.1-6.5,4.5-11,11-11.1c11.5,0,23,0,34.5,0
			c1.1,0,2.2,0,3.8,0c0-2.6-0.1-5,0-7.4c0.2-2.1,0.7-4.2,1-6.3c0.1-0.7,0.2-1.4,0.1-2.1c-0.3-4.9-1.1-9.7-1-14.6c0.1-4.7,5-9,9.8-9
			c13-0.1,26-0.1,39.1,0c3.9,0,6.6,2.3,8.7,5.5c0.5,0.8,0.9,1.6,1.4,2.3c0,43.9,0,87.9,0,131.8c-1.7,3.6-4.4,6.3-8,8
			C376,431.5,328.8,431.5,281.6,431.5z M421.4,392.2c-13.3,0-26.3,0-39.3,0c0,3.3,0,6.4,0,9.6c13.2,0,26.2,0,39.3,0
			C421.4,398.5,421.4,395.4,421.4,392.2z M322.8,411.9c-13.3,0-26.2,0-39.2,0c0,3.3,0,6.5,0,9.7c13.2,0,26.1,0,39.2,0
			C322.8,418.3,322.8,415.2,322.8,411.9z M372,421.6c0-3.4,0-6.5,0-9.7c-13.2,0-26.2,0-39.2,0c0,3.4,0,6.5,0,9.7
			C346,421.6,358.8,421.6,372,421.6z M372.1,392.2c-13.3,0-26.3,0-39.3,0c0,3.3,0,6.4,0,9.6c13.2,0,26.2,0,39.3,0
			C372.1,398.5,372.1,395.4,372.1,392.2z M322.8,392.2c-13.3,0-26.3,0-39.3,0c0,3.3,0,6.4,0,9.6c13.2,0,26.2,0,39.3,0
			C322.8,398.5,322.8,395.4,322.8,392.2z M382.1,372.5c0,3.4,0,6.6,0,9.7c13.2,0,26.1,0,39.2,0c0-3.3,0-6.4,0-9.7
			C408.2,372.5,395.2,372.5,382.1,372.5z M332.7,382.1c13.3,0,26.3,0,39.3,0c0-3.3,0-6.4,0-9.6c-13.2,0-26.2,0-39.3,0
			C332.7,375.8,332.7,378.9,332.7,382.1z M382,421.5c13.3,0,26.3,0,39.3,0c0-3.3,0-6.4,0-9.6c-13.2,0-26.2,0-39.3,0
			C382,415.3,382,418.3,382,421.5z M322.8,372.5c-13.3,0-26.3,0-39.3,0c0,3.3,0,6.4,0,9.6c13.2,0,26.2,0,39.3,0
			C322.8,378.8,322.8,375.7,322.8,372.5z M382,362.4c13.3,0,26.2,0,39.2,0c0-3.4,0-6.6,0-9.7c-13.2,0-26.2,0-39.2,0
			C382,356.1,382,359.1,382,362.4z M372.1,352.8c-13.3,0-26.3,0-39.3,0c0,3.3,0,6.4,0,9.6c13.2,0,26.2,0,39.3,0
			C372.1,359.1,372.1,356,372.1,352.8z M382.1,333c0,3.4,0,6.6,0,9.8c13.2,0,26.1,0,39.1,0c0-3.4,0-6.6,0-9.8
			C408.1,333,395.2,333,382.1,333z M372.1,333.1c-13.3,0-26.3,0-39.3,0c0,3.3,0,6.4,0,9.6c13.2,0,26.2,0,39.3,0
			C372.1,339.4,372.1,336.3,372.1,333.1z M421.3,323.1c0-3.4,0-6.5,0-9.7c-13.2,0-26.2,0-39.2,0c0,3.4,0,6.5,0,9.7
			C395.2,323.1,408.1,323.1,421.3,323.1z M421.4,293.7c-13.3,0-26.3,0-39.3,0c0,3.3,0,6.4,0,9.6c13.2,0,26.2,0,39.3,0
			C421.4,299.9,421.4,296.9,421.4,293.7z"/>
		<path class="st1" d="M265,116.2c6.5,3.3,12.9,6.6,19.4,9.9c4.1,2.1,4.8,4.1,2.8,8.2c-5.2,10.5-10.4,20.9-15.4,30.9
			c2.6,3.1,5,6,7.6,9.1c4.9-0.9,8.3-5.4,9.2-13.4c3.1,0,6.2,0,9.6,0c-0.9,10.1-5.8,17.2-14.5,21.8c-4.7,2.4-4.7,2.3-6.7,7.8
			c1.9,1.1,3.7,2.2,5.7,3.2c9.1,4.9,18.6,9.2,27.3,14.7c17.7,11.1,28.4,27.8,34.6,47.4c5.8,18.3,7.5,37.1,7.7,56.1
			c0,0.3-0.1,0.6-0.2,1c-3,0-6,0-9.2,0c-0.3-6-0.5-11.9-0.8-17.8c-0.9-14.4-3.3-28.5-8.3-42.1c-7.7-20.7-22.3-34.6-41.9-44.1
			c-8.3-4-16.1-8.9-24.2-13.3c-0.8-0.5-1.9-0.7-2.9-0.7c-13.9,0-27.7,0-41.6,0c-0.9,0-1.9,0.2-2.6,0.6c-8.5,5-16.8,10.2-25.3,15.1
			c-15.3,8.6-27.9,19.8-36,35.6c-6,11.6-9.3,24-11.4,36.8c-3.2,19.8-2.4,39.7-2.4,59.6c-0.1,18,0,35.9,0,53.9
			c0,15.2,10.1,25.2,25.3,25.2c29.9,0,59.7,0,89.6,0c1,0,2,0,3.4,0c0,3.5,0,6.6,0,9.8c-32.4,0-64.9,0-97.3,0
			c-0.6-0.2-1.1-0.5-1.7-0.6c-13.8-2.9-22.8-11.1-27.5-24.3c-0.7-1.9-1.1-3.9-1.6-5.8c0-31,0-62,0-93c0.2-1.2,0.5-2.4,0.6-3.6
			c0.5-12.2,2.1-24.3,5.1-36.2c4.8-19,13-36.2,27.4-50c9.2-8.8,20.2-15,31.3-21c3.8-2,7.5-4.2,11-6.2c-0.5-4.3-2.4-6.5-6.3-8.2
			c-9.1-4-14-11.6-14.9-21.7c3.4,0,6.5,0,9.6,0c1,8.1,4.3,12.5,9.3,13.4c2.6-3.1,5-6,7.6-9.1c0.1,0.4,0.1,0.1,0,0
			c-5.1-10.3-10.3-20.5-15.4-30.8c-2-4.1-1.3-6.1,2.7-8.2c6.5-3.3,12.9-6.6,19.4-9.9c0.8,0,1.6,0,2.5,0c5.6,2.9,11.2,5.8,16.9,8.6
			c0.8,0.4,2,0.5,2.8,0.1c5.8-2.8,11.5-5.8,17.2-8.7C263.3,116.2,264.2,116.2,265,116.2z M211.3,133c0.2,0.7,0.3,1.2,0.6,1.6
			c4.8,9.7,9.6,19.4,14.6,29.1c0.5,0.9,2.2,1.8,3.3,1.8c9.4,0.1,18.9,0,28.3,0.1c2,0,3.1-0.6,4-2.5c4.2-8.6,8.5-17,12.7-25.6
			c0.7-1.4,1.4-2.9,2.1-4.5c-3.9-2-7.5-3.9-11.2-5.6c-1.1-0.5-2.8-0.5-3.9,0c-4.9,2.3-9.8,4.7-14.6,7.2c-2.2,1.2-4.2,1.1-6.4,0
			c-4.8-2.5-9.7-4.9-14.6-7.3c-0.9-0.4-2.3-0.7-3.1-0.3C219.2,129,215.3,131,211.3,133z M219.4,185.1c16.6,0,32.8,0,49.2,0
			c0-3.3,0-6.4,0-9.6c-16.5,0-32.8,0-49.2,0C219.4,178.8,219.4,181.8,219.4,185.1z"/>
		<path class="st1" d="M431.2,256c-2.8,6.1-7.6,8.3-14.3,8c-11.2-0.4-22.3-0.1-33.5-0.1c-6.7,0-11.1-4.5-11.2-11.1
			c0-2.5,0-4.9,0-7.4c0.1-6.2,4.6-10.8,10.9-10.8c11.3,0,22.6,0.3,33.8-0.1c6.8-0.3,11.5,1.9,14.3,8
			C431.2,247,431.2,251.5,431.2,256z M421.4,244.4c-13.3,0-26.3,0-39.3,0c0,3.3,0,6.5,0,9.6c13.2,0,26.3,0,39.3,0
			C421.4,250.7,421.4,247.6,421.4,244.4z"/>
		<path class="st1" d="M244,224.7c34.4,0,64,29.4,64,63.7c0.1,34.6-29.3,64.1-63.9,64.2c-34.5,0.1-64-29.5-64-64.1
			C180.1,254.2,209.6,224.7,244,224.7z M298.3,288.6c-0.1-30.9-23.8-54.4-54.7-54.3c-30.5,0.1-54,24-53.8,54.9
			c0.1,30.5,24,53.8,55.1,53.7C274.7,342.8,298.4,318.8,298.3,288.6z"/>
		<path class="st1" d="M387.2,185.4c3.2,0,6.2,0,9.4,0c0,13,0,25.9,0,38.9c-3.2,0-6.2,0-9.4,0C387.2,211.3,387.2,198.4,387.2,185.4z
			"/>
		<path class="st1" d="M416.2,194.8c-3.2,0-6.2,0-9.4,0c0-13,0-25.9,0-38.9c3.2,0,6.2,0,9.4,0C416.2,168.9,416.2,181.7,416.2,194.8z
			"/>
		<path class="st1" d="M416.2,205.2c0,3,0,5.9,0,9.1c-3,0-6,0-9.3,0c0-2.8,0-5.9,0-9.1C409.8,205.2,412.8,205.2,416.2,205.2z"/>
		<path class="st1" d="M387.1,175c0-3.3,0-6.2,0-9.3c3.2,0,6.2,0,9.4,0c0,3.1,0,6.1,0,9.3C393.4,175,390.4,175,387.1,175z"/>
		<path class="st1" d="M283.2,284.1c0,3,0,5.9,0,9.2c-3,0-6,0-9.3,0c0-2.9,0-5.9,0-9.2C276.8,284.1,279.8,284.1,283.2,284.1z"/>
		<path class="st1" d="M214.3,284c0,3.2,0,6.1,0,9.3c-3.1,0-6.1,0-9.3,0c0-3,0-6,0-9.3C208,284,211,284,214.3,284z"/>
	</g>
	<g>
		<path class="st1" d="M248.1,267.3v14.2l13.4-6.7v4.9l-13.4,6.7v6.7l13.4-6.7v4.9l-13.4,6.7V317H240v-15.1l-13.3,6.7v-4.9l13.3-6.7
			v-6.7l-13.3,6.7v-4.9l13.3-6.7v-18.3h-19.5v-7.1h47.1v7.1H248.1z"/>
	</g>
</g>
<g id="Layer_2">
</g>
</svg>
