<?xml version="1.0" encoding="utf-8"?>
<!-- Generator: Adobe Illustrator 22.0.1, SVG Export Plug-In . SVG Version: 6.00 Build 0)  -->
<svg version="1.1" xmlns="http://www.w3.org/2000/svg" xmlns:xlink="http://www.w3.org/1999/xlink" x="0px" y="0px"
	 viewBox="0 0 566.9 566.9" style="enable-background:new 0 0 566.9 566.9;" xml:space="preserve">
<style type="text/css">
	.st0{fill:url(#SVGID_1_);}
	.st1{fill:#FFFFFF;}
</style>
<g id="Layer_1">
	<g id="Layer_2_1_">

			<linearGradient id="SVGID_1_" gradientUnits="userSpaceOnUse" x1="0" y1="284.5" x2="567" y2="284.5" gradientTransform="matrix(1 0 0 -1 0 568)">
			<stop  offset="0" style="stop-color:#F93702"/>
			<stop  offset="1" style="stop-color:#FF6600"/>
		</linearGradient>
		<circle class="st0" cx="283.5" cy="283.5" r="283.5"/>
	</g>
	<g>
		<path class="st1" d="M400,427.7c0-18.9,0.3-37.9-0.1-56.8c-0.4-18.9-9.2-32.5-26.9-39.8c-11.2-4.6-22.4-9.1-33.6-13.7
			c-3.5-1.4-6.9-3.2-10.7-5c-6.4,6.5-13,12.9-19.4,19.6c-1.8,1.9-3.2,2.2-5.6,0.9c-5.9-3.2-11.9-6.1-18-8.9c-1.2-0.6-3.2-0.6-4.4,0
			c-6.2,2.9-12.3,5.9-18.3,9.1c-2.1,1.1-3.4,1-5.1-0.8c-6.4-6.7-13-13.1-19.6-19.8c-4.6,2.1-9,4.3-13.6,6.2
			c-8.7,3.6-17.6,7-26.4,10.4c-1.5,0.6-2.9,1.3-4.4,2c-18,7.5-26.7,21.4-27,40.5c-0.3,18.7,0,37.4,0,56.1c-3.7,0-7.4,0-11.1,0
			c0-16.9-0.1-33.7,0.2-50.6c0.1-6.5,0.8-13.2,2.2-19.5c3.2-14.8,11.6-26.2,25.1-33.1c8.7-4.5,17.9-7.9,26.9-11.7
			c1.2-0.5,2.4-0.9,3.6-1.4c19.9-7.7,19.9-7.7,31.8-25.3c0.9-1.3,2.4-2.3,3.6-3.4c0.3,0.2,0.6,0.4,1,0.5c0-4.3,0-8.7,0-13
			c0-0.6-0.4-1.3-0.9-1.8c-11.2-11.9-16.7-26.5-19.6-42.1c-3.1-17-3.2-34.3,0.8-51.2c5-20.6,20.7-33.1,42.2-35
			c1.2-0.1,2.4-0.5,3.7-0.8c4.6,0,9.2,0,13.9,0c3.3,0.6,6.6,1.1,9.8,1.8c22,5,34.6,18.1,37.6,41.4c2.6,20.2,2.4,40.5-5.1,60.1
			c-3.6,9.3-8,18.1-14.9,25.5c-0.6,0.7-1.1,1.8-1.1,2.7c-0.1,4-0.1,8.1-0.1,11.1c2,1.7,3.5,2.7,4.6,4.1c1.9,2.5,3.8,5,5.2,7.8
			c3.2,6.2,8.1,10,14.5,12.5c11.1,4.3,22.1,8.6,33,13.4c5.5,2.4,10.9,5.2,15.7,8.7c13.1,9.3,19.6,22.8,20.5,38.4
			c1,17,0.6,34.2,0.8,51.2c0,3.2,0.1,6.5,0.1,9.7C407.4,427.7,403.7,427.7,400,427.7z M327.9,203.6c-4.8,2.4-9.2,4.4-13.4,6.7
			c-2.1,1.2-4,1.1-6.2,0.2c-16.3-6.6-32.7-13.2-49.1-19.6c-1.5-0.6-3.7-0.8-5.1-0.2c-4.5,1.9-8.8,4.2-13,6.5
			c-0.9,0.5-1.9,1.8-1.9,2.8c0.1,7.1-0.3,14.4,0.8,21.4c1.9,12.9,5.9,25.1,13.8,35.8c2.6,3.6,5.9,6,10.3,7.2
			c10.3,2.8,20.7,3.3,31.2,1.8c9-1.3,16.4-4.5,21.1-13.1C324.5,237.8,328.9,221.7,327.9,203.6z M240.1,185.4c4.2-2.1,8.4-4,12.4-6.2
			c2.1-1.2,4-1.2,6.2-0.3c14,5.7,28.2,10.8,41.9,17c7.3,3.3,13.3,3.5,20.1-0.7c7.2-4.4,7.5-3.9,6.5-12.5
			c-1.9-16-10.2-26.4-24.4-30.2c-9.4-2.5-18.9-2.7-28.5-1.8c-6.5,0.6-12.7,2-18.5,5.2C246.2,161.3,238.6,175.2,240.1,185.4z
			 M253.7,295.1c-0.5,0.4-1.5,0.8-2.1,1.6c-1.5,1.9-2.6,4.1-4.1,6c-1.2,1.6-1.1,2.7,0.4,4.1c4.2,4.1,8.4,8.2,12.5,12.5
			c1.4,1.5,2.6,1.8,4.5,0.8c5.4-2.9,10.8-5.6,16.4-8.2c1.2-0.6,3.1-0.6,4.4,0c5.5,2.5,11,5.3,16.4,8.1c1.8,1,3,0.9,4.5-0.7
			c2.5-2.7,5.2-5.3,7.8-7.9c6.8-6.8,6.8-6.8,1.2-14.4c-0.7-1-2.6-1.9-3.9-1.7c-4.7,0.5-9.3,1.6-14,2.2c-5.8,0.7-11.7,2-17.4,1.6
			C271.6,298.6,263,296.7,253.7,295.1z M261.4,274.8c0,3.9,0,7.2,0,10.6c2.9,0.5,5.6,1.1,8.3,1.5c4.9,0.8,9.8,2.2,14.7,2
			c6.5-0.3,13-2,19.4-3.2c0.8-0.1,1.9-1.1,1.9-1.7c0.2-2.9,0.1-5.8,0.1-9.2C290.7,278.7,276.3,278.7,261.4,274.8z"/>
		<path class="st1" d="M106,296.7c3-1.6,6.1-3.1,9.1-4.8c8.1-4.6,16.2-9.3,24.4-13.9c1.1-0.6,2.1-1.3,3.3-2
			c-6.6-9.6-9.5-20-8.9-31.3c0.2-3.8,0.6-7.6,1.5-11.3c3.3-13.5,12-20.4,27.4-21.6c4.7-0.4,9.5-0.1,14.1,0.8
			c13.4,2.6,21,11.5,22.6,25.7c1.7,15.2-0.1,23.6-8.3,37.8c7.5,4.5,15.1,9.1,22.8,13.8c-1.9,3.2-3.6,6.1-5.5,9.2
			c-7.7-4.6-15.2-9-22.5-13.6c-1.9-1.2-3.4-1.4-5.6-0.2c-9,4.9-18.1,4.8-27.1-0.2c-1.8-1-3-1-4.7,0c-9.7,5.6-19.4,11.2-29.2,16.7
			c-1.9,1.1-2.6,2.3-2.4,4.4c0.3,3.7,0.2,7.4,0.9,11c0.8,4.1,2.7,5.2,6.9,5.2c9.1,0,18.3,0,27.4,0c1.1,0,2.2,0,3.5,0
			c0,3.7,0,7,0,10.3c-0.1,0.1-0.3,0.4-0.5,0.4c-11.1,0-22.2,0.3-33.3,0c-4.8-0.1-8.4-3.3-10.8-7.3c-2.1-3.5-3.4-7.5-5.1-11.2
			C106,308.7,106,302.7,106,296.7z M189.6,246.6c-0.3-3.6-0.5-7.1-1.1-10.7c-1.2-7.5-5.3-12-12.9-12.8c-5.8-0.6-11.7-0.5-17.5,0
			c-5.7,0.5-10.2,3.7-11.6,9.4c-2.9,11.3-2.9,22.7,2.3,33.5c3.6,7.4,9.5,11.8,18,12c8.7,0.2,14.6-4.3,18.5-11.6
			C188.5,260.2,189.4,253.5,189.6,246.6z"/>
		<path class="st1" d="M461,314.7c-1.4,3.3-2.4,6.7-4.1,9.8c-3.4,5.9-8.3,9.2-15.6,8.9c-9.9-0.3-19.8-0.1-29.9-0.1
			c0-3.7,0-7.1,0-10.9c3.2,0,6.3,0,9.4,0c7.3,0,14.6-0.1,21.8,0.1c3.5,0.1,5.8-1.5,6.3-4.6c0.8-4.5,0.8-9.1,1-13.7
			c0-0.7-1.1-1.6-1.9-2.1c-9.9-5.7-19.8-11.4-29.8-16.9c-1.1-0.6-3.1-0.5-4.3,0.1c-9.3,4.9-18.6,5-27.7-0.1
			c-1.9-1.1-3.1-0.7-4.7,0.3c-7.5,4.6-15,9-22.9,13.8c-1.9-3.1-3.6-6-5.6-9.2c7.6-4.6,15.1-9.1,22.8-13.8c-0.6-1-1-1.8-1.5-2.7
			c-8.2-13.6-9.5-28-4.9-43c3.9-12.8,13.8-17.9,26.3-18.7c4.7-0.3,9.5-0.1,14.1,0.8c13.5,2.6,21,11.5,22.8,25.6
			c1.8,13.6-0.5,26.2-8.4,37.9c4.2,2.4,8.1,4.7,12.1,7c8.2,4.6,16.5,9.2,24.7,13.8C461,302.7,461,308.7,461,314.7z M377.5,246
			c-0.2,0.1-0.4,0.1-0.7,0.2c1.2,5.8,1.9,11.8,3.8,17.4c2.2,6.7,6.8,11.8,14,13.8c10.6,2.9,20.4-2.3,24.8-13.5
			c3.8-9.6,3.7-19.6,1.7-29.6c-1.3-6.4-5.5-10.3-11.8-11c-5.8-0.6-11.8-0.8-17.5-0.1c-8.2,0.9-12.1,5.3-13.3,13.5
			C378,239.8,377.8,242.9,377.5,246z"/>
		<path class="st1" d="M355.6,427.7c0-14.6,0-29.3,0-44.1c3.8,0,7.2,0,11.1,0c0,14.8,0,29.5,0,44.1
			C363,427.7,359.3,427.7,355.6,427.7z"/>
		<path class="st1" d="M200.3,427.7c0-14.6,0-29.3,0-44.1c3.9,0,7.2,0,11.1,0c0,14.8,0,29.5,0,44.1
			C207.7,427.7,204,427.7,200.3,427.7z"/>
		<path class="st1" d="M278.3,361.4c3.5,0,6.8,0,10.4,0c0,3.4,0,6.8,0,10.5c-3.3,0-6.7,0-10.4,0
			C278.3,368.6,278.3,365.2,278.3,361.4z"/>
		<path class="st1" d="M278.2,349.7c0-3.4,0-6.7,0-10.3c3.4,0,6.8,0,10.5,0c0,3.3,0,6.6,0,10.3C285.4,349.7,282,349.7,278.2,349.7z"
			/>
	</g>
</g>
<g id="Layer_2">
</g>
</svg>
