<?xml version="1.0" encoding="utf-8"?>
<!-- Generator: Adobe Illustrator 22.0.1, SVG Export Plug-In . SVG Version: 6.00 Build 0)  -->
<svg version="1.1" id="Layer_1" xmlns="http://www.w3.org/2000/svg" xmlns:xlink="http://www.w3.org/1999/xlink" x="0px" y="0px"
	 viewBox="0 0 452.6 73" style="enable-background:new 0 0 452.6 73;" xml:space="preserve">
<style type="text/css">
	.st0{fill:url(#SVGID_1_);}
</style>
<linearGradient id="SVGID_1_" gradientUnits="userSpaceOnUse" x1="-1.509781e-05" y1="36.3191" x2="452.0017" y2="36.3191">
	<stop  offset="0" style="stop-color:#F93702"/>
	<stop  offset="1" style="stop-color:#FF6600"/>
</linearGradient>
<path class="st0" d="M144,0h9v72h-9V0z M98.2,29L94,24.7c-0.5-0.5-1.4-0.5-1.9,0c0,0,0,0,0,0L78.2,38.6l-5.4-5.4
	c-0.5-0.5-1.4-0.5-1.9,0c0,0,0,0,0,0l-4.3,4.2c-0.5,0.5-0.5,1.4,0,1.9c0,0,0,0,0,0L77.2,50c0.5,0.5,1.4,0.5,1.9,0c0,0,0,0,0,0
	l19.1-19.1C98.7,30.4,98.7,29.5,98.2,29z M116.9,38.3C115.8,56.9,99,72,80.3,72H36C15.4,72-1.2,54.7,0.1,33.8C1.2,15.2,18,0,36.7,0
	H81C101.6,0,118.2,17.4,116.9,38.3z M108,36c0-14.9-12.1-27-27-27S54,21.1,54,36s12.1,27,27,27S108,50.9,108,36z M94,24.7
	c-0.5-0.5-1.4-0.5-1.9,0c0,0,0,0,0,0L78.2,38.6l-5.4-5.4c-0.5-0.5-1.4-0.5-1.9,0c0,0,0,0,0,0l-4.3,4.2c-0.5,0.5-0.5,1.4,0,1.9
	c0,0,0,0,0,0L77.2,50c0.5,0.5,1.4,0.5,1.9,0c0,0,0,0,0,0l19.1-19.1c0.5-0.5,0.5-1.4,0-1.9L94,24.7z M255.2,30
	c-1.5-1.4-3.2-2.4-5.2-3.1c-2-0.7-4.1-1-6.2-1c-3.2-0.1-6.3,0.7-9.1,2.2c-2.4,1.3-4.4,3.3-5.5,5.8H229v-7h-9v44h9V48.6
	c-0.4-2.3-0.1-4.6,0.6-6.7c0.5-1.7,1.4-3.3,2.7-4.7c1.1-1.2,2.5-2.1,4-2.7c1.6-0.6,3.3-0.9,4.9-0.9c1.3,0,2.6,0.2,3.9,0.6
	c1.2,0.4,2.3,1.1,3.3,2c1,1,1.8,2.3,2.3,3.6c0.6,1.7,0.9,3.5,1.4,5.4V72h8V43.1c0.1-2.6-0.4-5.3-1.3-7.7
	C257.9,33.4,256.7,31.5,255.2,30z M207.8,40.4c0.8,2.8,1.2,5.7,1.2,8.6v3h-36.1c0,1.9,0.4,3.7,1.3,5.4c0.9,1.6,2,3,3.4,4.1
	c1.4,1.2,3.1,2.1,4.8,2.7c1.8,0.6,3.8,1,5.7,1c2.4,0.1,4.8-0.6,6.9-1.9c2.1-1.3,3.9-3,5.4-4.9l6.5,4.9c-4.8,6.1-11.4,9.2-20,9.2
	c-3.3,0.1-6.6-0.5-9.6-1.8c-2.8-1.1-5.3-2.8-7.3-5c-2-2.2-3.6-4.7-4.6-7.5c-1.1-3-1.6-6.2-1.6-9.4c0-3.2,0.6-6.4,1.8-9.4
	c1.1-2.8,2.8-5.4,4.8-7.5c2.1-2.1,4.6-3.8,7.4-5c3-1.2,6.1-1.8,9.3-1.8c3.5-0.1,7,0.6,10.1,2.1c2.6,1.3,5,3.2,6.8,5.5
	C205.8,35,207.1,37.6,207.8,40.4z M199.7,46c0-1.8-0.3-3.5-0.9-5.2c-0.5-1.5-1.3-2.9-2.4-4.1c-1.1-1.2-2.5-2.1-4-2.8
	c-1.8-0.7-3.7-1-5.7-1c-2,0-3.9,0.4-5.8,1.2c-1.7,0.7-3.2,1.8-4.5,3.1c-1.2,1.2-2.1,2.7-2.8,4.2c-0.6,1.5-1,3-1,4.6H199.7z
	 M396.7,32.1c-1.3-1.9-3.1-3.5-5.2-4.5c-2.7-1.2-5.6-1.8-8.6-1.7c-2.8,0-5.6,0.7-8.1,2.1c-2.7,1.4-4.8,3.6-6.2,6.3
	c-1.3-2.6-3.2-4.7-5.6-6.3c-2.6-1.5-5.5-2.2-8.5-2.1c-1.9,0-3.8,0.3-5.6,0.9c-1.5,0.5-3,1.3-4.4,2.2c-1.1,0.8-2.1,1.7-3,2.7
	c-0.6,0.7-1.1,1.5-1.5,2.4H340v-7h-8v44h8V48.5c0.3-2.2,0.6-4.5,1.3-6.6c0.5-1.7,1.4-3.3,2.6-4.6c1-1.2,2.3-2.1,3.8-2.7
	c1.4-0.6,2.9-0.9,4.4-0.9c1.7-0.1,3.5,0.3,5,1.1c1.2,0.7,2.2,1.7,2.8,3c0.7,1.4,1.2,3,1.3,4.6c0.2,2,0.3,3.9-0.2,5.9V72h9V47.4
	c-0.2-3.5,0.8-6.9,2.6-9.8c1.8-2.5,4.7-3.8,8.8-3.8c1.7-0.1,3.4,0.3,5,1.1c1.2,0.7,2.2,1.7,2.9,2.9c0.7,1.3,1.2,2.7,1.4,4.2
	c0.2,1.6,0.3,3.3,0.3,4.9V72h9V45.8c0-2.5-0.2-4.9-0.7-7.4C398.9,36.2,398,34,396.7,32.1z M450.6,35.4c-0.8-2-2-3.8-3.5-5.4
	c-1.5-1.4-3.2-2.4-5.2-3.1c-2-0.7-4.1-1-6.1-1c-3.2-0.1-6.3,0.7-9.1,2.2c-2.4,1.3-4.4,3.3-5.5,5.8H421v-7h-9v44h9V48.6
	c0.2-2.3,0.5-4.6,1.2-6.7c0.5-1.7,1.4-3.3,2.7-4.7c1.1-1.2,2.5-2.1,4-2.7c1.6-0.6,3.3-0.9,4.9-0.9c1.3,0,2.6,0.2,3.8,0.6
	c1.2,0.4,2.4,1.1,3.3,2c1,1,1.8,2.3,2.3,3.6c0.6,1.7,0.9,3.5,0.8,5.4V72h8V43.1C452,40.5,451.6,37.9,450.6,35.4z M310,0h9v72h-9v-7
	h-0.2c-1.7,2.5-4,4.4-6.8,5.6c-2.8,1.3-5.8,2-8.9,2c-3.2,0-6.4-0.6-9.4-1.8c-2.7-1.1-5.2-2.8-7.2-5c-2-2.2-3.6-4.7-4.6-7.5
	c-1.1-3-1.7-6.1-1.6-9.3c0-3.2,0.5-6.4,1.6-9.3c1-2.8,2.6-5.3,4.6-7.4c2-2.1,4.5-3.8,7.2-5c3-1.2,6.2-1.9,9.4-1.8
	c3.1,0,6.3,0.7,9.1,2c2.7,1.2,4.9,3.1,6.5,5.5h0.2L310,0z M309.1,43.1c-0.6-1.8-1.6-3.5-3-4.9c-1.3-1.4-2.9-2.5-4.7-3.2
	c-4-1.6-8.4-1.6-12.3,0c-1.8,0.7-3.3,1.8-4.7,3.2c-1.3,1.4-2.3,3.1-2.9,4.9c-1.4,4.1-1.4,8.5,0,12.6c0.6,1.8,1.6,3.5,2.9,4.9
	c1.3,1.4,2.9,2.5,4.7,3.2c4,1.6,8.4,1.6,12.3,0c1.8-0.7,3.4-1.8,4.7-3.2c1.3-1.4,2.3-3.1,3-4.9C310.5,51.6,310.5,47.1,309.1,43.1z"
	/>
</svg>
