<?xml version="1.0" encoding="utf-8"?>
<!-- Generator: Adobe Illustrator 22.0.1, SVG Export Plug-In . SVG Version: 6.00 Build 0)  -->
<svg version="1.1" xmlns="http://www.w3.org/2000/svg" xmlns:xlink="http://www.w3.org/1999/xlink" x="0px" y="0px"
	 viewBox="0 0 566.9 566.9" style="enable-background:new 0 0 566.9 566.9;" xml:space="preserve">
<style type="text/css">
	.st0{fill:url(#SVGID_1_);}
	.st1{fill:#FFFFFF;}
</style>
<g id="Layer_1">
	<g id="Layer_2_1_">

			<linearGradient id="SVGID_1_" gradientUnits="userSpaceOnUse" x1="0" y1="284.5" x2="567" y2="284.5" gradientTransform="matrix(1 0 0 -1 0 568)">
			<stop  offset="0" style="stop-color:#F93702"/>
			<stop  offset="1" style="stop-color:#FF6600"/>
		</linearGradient>
		<circle class="st0" cx="283.5" cy="283.5" r="283.5"/>
	</g>
	<g>
		<path class="st1" d="M392.2,427.6c0,8.6,0,17.2,0,25.9c-75.6,0-151.3,0-226.9,0c0-8.6,0-17.3,0-25.9c1.4-2.8,3.7-3.8,6.8-3.7
			c4.2,0.2,8.4,0.1,12.6,0.1c3.3,0,6.7,0,10.2,0c0-2.2-0.1-3.9,0-5.7c0.4-10.5,0-21,1.3-31.4c4.9-39.6,25.3-68.9,60.1-88.2
			c1.3-0.7,2.8-1,2.8-3.2c0-2.1-1.5-2.5-2.8-3.2c-31.3-17.2-51.1-43.1-58.7-78.1c-2.8-13-2.9-26.3-2.7-39.6c0-2.4,0-4.9,0-7.5
			c-7.9,0-15.4-0.1-22.9,0.1c-3.1,0.1-5.4-0.9-6.8-3.7c0-8.6,0-17.3,0-25.9c75.6,0,151.3,0,226.9,0c0,8.6,0,17.3,0,25.9
			c-1.5,2.7-3.7,3.8-6.8,3.7c-4.2-0.2-8.4-0.1-12.6-0.1c-3.3,0-6.7,0-10.2,0c0,2.2,0.1,3.9,0,5.7c-0.4,10.5,0,21-1.3,31.4
			c-4.9,39.6-25.3,68.9-60.2,88.1c-1.3,0.7-2.7,1.1-2.7,3.2c0,2.1,1.5,2.4,2.8,3.1c33.3,18.4,53.8,46.2,59.5,83.9
			c1.9,12.4,1.4,25.2,1.9,37.8c0,1.1,0,2.2,0,3.5c7.9,0,15.4,0.1,22.9-0.1C388.5,423.9,390.7,424.9,392.2,427.6z M352.9,397.9
			c-0.7-5.3-1-10.6-2-15.8c-6.9-36-26.8-62-60.1-77.5c-0.9-0.4-1.9-1.8-2-2.8c-0.2-4.1-0.2-8.2,0-12.3c0-0.9,0.9-2.3,1.7-2.7
			c20.6-8.9,36.4-23.3,47.7-42.5c3.6-6.1,6.2-12.8,9.3-19.2c-0.3-0.2-0.6-0.4-0.9-0.6c-0.9,0.3-1.9,0.6-2.8,0.9
			c-20.3,8.1-40.6,16.2-60.8,24.4c-3,1.2-5.5,1.3-8.5,0c-20.2-8.2-40.5-16.3-60.8-24.4c-1-0.4-1.9-0.7-3.1-1.1
			c0.1,0.7,0.1,0.9,0.2,1.1c9.9,28.1,28.3,48.4,55.4,60.8c2,0.9,2.8,1.8,2.7,4c-0.2,3.2-0.2,6.4,0,9.5c0.2,2.8-0.5,4.5-3.5,5.4
			c-2.2,0.6-4.3,1.9-6.4,3c-28.8,16.5-46.4,41-52.4,73.7c-1,5.3-1.4,10.6-2,16c19.6-23,44.8-33,74-33
			C307.8,364.9,333.2,374.9,352.9,397.9z M352.8,167.5c-49.6,0-98.7,0-148.1,0c0,3.9-0.2,7.6,0,11.2c0.5,10.2,1.2,20.5,1.9,30.7
			c0.1,1.8,0.6,3.2,2.7,4c22.5,8.9,44.9,17.9,67.4,26.8c1.2,0.5,2.9,0.5,4.1,0c22.5-8.9,45-17.9,67.4-27c1.1-0.5,2.4-2,2.6-3.2
			C353.6,196,352.7,181.9,352.8,167.5z M352.5,423.8c-0.2-1.5-0.4-2.8-0.7-4.1c-3.2-13.9-11.5-24.5-23.4-31.5
			c-31.3-18.4-63.5-18.7-95.7-2.2c-10.7,5.4-19,13.8-24,24.8c-1.8,4-2.8,8.4-4.3,13C254.3,423.8,303.2,423.8,352.5,423.8z
			 M175.2,147.7c0,3.4,0,6.6,0,9.7c69.1,0,138.1,0,206.9,0c0-3.4,0-6.5,0-9.7C313.1,147.7,244.3,147.7,175.2,147.7z M382.3,433.9
			c-69.2,0-138.1,0-207,0c0,3.3,0,6.5,0,9.6c69.1,0,138.1,0,207,0C382.3,440.1,382.3,437.1,382.3,433.9z"/>
		<path class="st1" d="M165.3,264.2c2.1-4.1,4.8-7.4,9.9-8c0-26.2,0-52.3,0-78.6c3.2,0,6.2,0,9.6,0c0,26,0,52.1,0,77.6
			c2.8,1.7,5.5,2.7,7,4.6c1.6,2.1,2.8,5.1,2.9,7.8c0.2,18.3,0.1,36.6,0.1,54.8c0,7.3-2.4,10.5-9.8,12.8c0,26,0,52.2,0,78.5
			c-3.3,0-6.4,0-9.6,0c0-26.1,0-52.2,0-78.5c-5.1-0.7-8-4-10.1-8.1C165.3,306.1,165.3,285.2,165.3,264.2z M175.2,325.1
			c3.5,0,6.6,0,9.7,0c0-19.8,0-39.3,0-59c-3.3,0-6.4,0-9.7,0C175.2,285.8,175.2,305.4,175.2,325.1z"/>
		<path class="st1" d="M392.2,327.1c-3.6,5.8-4.2,6.4-9.9,8.2c0,26,0,52.1,0,78.4c-3.2,0-6.2,0-9.6,0c0-26,0-52.2,0-78.3
			c-1.2-0.4-2-0.6-2.9-1c-4.3-1.6-7.1-5.5-7.1-10.1c0-19.1,0-38.2,0-57.3c0-5.5,3.1-8.9,9.8-11c0-26,0-52.2,0-78.5
			c3.3,0,6.4,0,9.6,0c0,26.1,0,52.2,0,78.5c5.1,0.7,8,4,10.1,8.1C392.2,285.2,392.2,306.1,392.2,327.1z M372.5,325.2
			c3.4,0,6.6,0,9.7,0c0-19.8,0-39.4,0-58.9c-3.4,0-6.5,0-9.7,0C372.5,285.9,372.5,305.4,372.5,325.2z"/>
		<path class="st1" d="M274,315.1c0-3.1,0-6.1,0-9.2c3.1,0,6.1,0,9.4,0c0,3,0,6,0,9.2C280.4,315.1,277.3,315.1,274,315.1z"/>
		<path class="st1" d="M274.2,325.5c3,0,5.9,0,9.2,0c0,3,0,6,0,9.3c-2.9,0-5.9,0-9.2,0C274.2,331.9,274.2,328.9,274.2,325.5z"/>
		<path class="st1" d="M283.5,345.3c0,3.1,0,6.1,0,9.2c-3.1,0-6.1,0-9.4,0c0-3,0-6,0-9.2C277.1,345.3,280.1,345.3,283.5,345.3z"/>
	</g>
</g>
<g id="Layer_2">
</g>
</svg>
