  <svg width="129" height="24" viewBox="0 0 129 24" fill="none" xmlns="http://www.w3.org/2000/svg">
    <path d="M128.178 17.2317C128.037 17.2289 127.899 17.1901 127.777 17.1189C127.656 17.0478 127.554 16.9468 127.483 16.8255C127.367 16.6809 127.278 16.5167 127.221 16.3406C127.221 16.2947 127.155 16.1506 127.083 15.9213C126.713 14.728 126.257 13.563 125.719 12.4354C125.19 11.3301 124.508 10.3045 123.694 9.38851L124.48 8.64809C124.898 8.26106 125.355 7.91849 125.844 7.62591C126.304 7.30282 126.826 7.07961 127.378 6.97067V6.57753H122.927V6.97067L123.189 7.02309L123.418 7.15414C123.549 7.26483 123.632 7.42244 123.648 7.59315C123.595 7.8935 123.451 8.17028 123.235 8.38599L122.619 9.04123L120.973 10.6531V8.76603C120.946 8.30525 121.013 7.84373 121.17 7.40968C121.221 7.28018 121.312 7.17035 121.43 7.09612C121.548 7.02189 121.686 6.98713 121.825 6.99688V6.57753H117.001V6.97067C117.14 6.9614 117.279 6.99712 117.397 7.07258C117.515 7.14805 117.606 7.2593 117.656 7.39002C117.808 7.80275 117.875 8.24174 117.853 8.68085V15.5478C117.879 15.993 117.815 16.4389 117.663 16.8582C117.607 16.9829 117.514 17.0871 117.397 17.1564C117.279 17.2257 117.143 17.2566 117.007 17.2448V17.6642H121.937V17.2448C121.314 17.2448 120.999 16.6813 120.999 15.5609V12.0946L121.537 11.5574L122.35 12.704C122.609 13.085 122.828 13.4911 123.005 13.9162C123.216 14.3927 123.4 14.8805 123.556 15.3774C123.709 15.7991 123.802 16.2403 123.831 16.6879C123.841 16.7759 123.825 16.8647 123.787 16.9445C123.749 17.0243 123.689 17.092 123.615 17.14C123.465 17.224 123.295 17.267 123.123 17.2645V17.6838H128.21L128.178 17.2317ZM109.331 10.699H112.386V15.4888C112.406 15.9514 112.34 16.4138 112.189 16.8517C112.122 16.9797 112.019 17.0859 111.894 17.1578C111.769 17.2298 111.625 17.2645 111.481 17.2579V17.6773H116.378V17.2579C116.238 17.2672 116.099 17.2315 115.981 17.156C115.863 17.0806 115.772 16.9693 115.722 16.8386C115.579 16.4332 115.516 16.0035 115.539 15.574V8.68085C115.507 8.23542 115.572 7.78835 115.729 7.37037C115.788 7.25063 115.883 7.15194 116 7.08752C116.117 7.02311 116.251 6.99605 116.384 7.00998V6.57753H111.487V6.97067C111.63 6.96339 111.772 6.99795 111.896 7.07012C112.019 7.14229 112.119 7.24892 112.182 7.37692C112.349 7.7811 112.421 8.21829 112.392 8.65464V9.59163H109.331V8.68085C109.298 8.23306 109.372 7.78393 109.547 7.37037C109.61 7.24824 109.706 7.14615 109.825 7.07556C109.943 7.00496 110.078 6.96864 110.216 6.97067V6.57753H105.312V6.97067C105.876 6.97067 106.158 7.54073 106.158 8.6874V15.5478C106.184 15.993 106.12 16.4389 105.968 16.8582C105.912 16.9829 105.819 17.0871 105.702 17.1564C105.584 17.2257 105.448 17.2566 105.312 17.2448V17.6642H110.216V17.2448C110.067 17.2598 109.918 17.2288 109.788 17.1562C109.658 17.0835 109.553 16.9726 109.488 16.8386C109.352 16.4023 109.299 15.9446 109.331 15.4888V10.699ZM99.4976 12.8023C99.1853 12.5225 98.8257 12.3006 98.4356 12.1471C98.0938 12.0184 97.7323 11.9497 97.367 11.9439L98.3307 8.77913L99.4976 12.8023ZM96.8754 13.4117L97.5309 13.4575L98.1144 13.5755C98.5173 13.6849 98.8911 13.8818 99.2091 14.1521C99.5528 14.3975 99.8483 14.704 100.081 15.0563C100.321 15.4132 100.463 15.8266 100.494 16.2554C100.494 16.4935 100.413 16.7244 100.265 16.9107C100.194 17.0055 100.102 17.0819 99.9961 17.1333C99.8899 17.1847 99.7728 17.2095 99.6549 17.2055V17.6249H104.952V17.2055C104.76 17.1718 104.58 17.0897 104.428 16.967C104.277 16.8443 104.159 16.6851 104.086 16.5044L103.673 15.3315L102.572 11.7932C102.467 11.5246 102.316 11.0397 102.107 10.3321L101.661 8.79879C101.509 8.34525 101.382 7.8837 101.281 7.41623C101.27 7.30962 101.298 7.20281 101.359 7.11482C101.437 7.04784 101.533 7.00661 101.635 6.99688V6.57753H97.1507V6.97067C97.2506 6.98219 97.3418 7.03277 97.4045 7.11136C97.4671 7.18995 97.4961 7.29014 97.485 7.39002C97.4781 7.54032 97.4471 7.68854 97.3933 7.82903L97.2294 8.30081L94.817 15.2857C94.6666 15.6892 94.4914 16.0831 94.2925 16.4651C94.1984 16.6447 94.0684 16.8032 93.9105 16.9305C93.7527 17.0579 93.5703 17.1515 93.3748 17.2055V17.6249H96.7508V17.2055C96.5606 17.1875 96.3791 17.1172 96.2264 17.0024C96.1069 16.8488 96.0423 16.6597 96.0428 16.4651C96.0494 16.2591 96.0802 16.0545 96.1346 15.8557L96.3247 15.0956L96.8754 13.4117ZM86.5833 11.2887C87.0028 11.277 87.4204 11.3486 87.812 11.4993C88.2036 11.65 88.5614 11.8769 88.8646 12.1667C89.1546 12.4304 89.3857 12.7523 89.5427 13.1114C89.6997 13.4704 89.7792 13.8585 89.7758 14.2504C89.7931 14.5645 89.7436 14.8787 89.6306 15.1724C89.5176 15.466 89.3437 15.7324 89.1203 15.954C88.6728 16.3583 88.084 16.5701 87.4814 16.5437C87.0619 16.5437 86.8259 16.4651 86.6948 16.3209C86.5827 16.038 86.5356 15.7334 86.5571 15.4298L86.5833 11.2887ZM88.4451 7.68488C89.1951 7.67727 89.9255 7.92447 90.5166 8.38599C91.1298 8.86693 91.5619 9.54136 91.7425 10.2993L92.0834 10.1748L91.2967 6.31543C91.2107 6.45587 91.075 6.5588 90.9165 6.60374H82.6107V6.97067C82.7505 6.9614 82.8895 6.99712 83.0075 7.07258C83.1255 7.14805 83.2162 7.2593 83.2663 7.39002C83.4099 7.79543 83.4723 8.22514 83.4498 8.65464V15.5478C83.4806 15.9931 83.4158 16.44 83.2597 16.8582C83.2043 16.9829 83.1113 17.0871 82.9938 17.1564C82.8763 17.2257 82.7401 17.2566 82.6042 17.2448V17.6642H89.3891L90.1888 17.579C90.6573 17.5289 91.107 17.3671 91.4999 17.1072C91.9653 16.8412 92.352 16.4569 92.6209 15.9933C92.6926 15.8778 92.7562 15.7574 92.811 15.6329C92.8681 15.4909 92.912 15.344 92.9421 15.1939C92.9981 14.9512 93.0245 14.7026 93.0208 14.4535C93.0357 13.7848 92.8654 13.1249 92.5288 12.5468C92.1922 11.9686 91.7023 11.4947 91.1132 11.1773C89.7229 10.4202 88.1519 10.0577 86.5702 10.1289V8.53014V8.18942C86.5922 8.09801 86.6348 8.01283 86.6948 7.94043C86.797 7.82385 86.9402 7.7511 87.0947 7.7373L87.6781 7.68488H88.4451ZM69.6965 10.699H72.7513V15.4888C72.7723 15.9514 72.7055 16.4138 72.5547 16.8517C72.4863 16.9787 72.3838 17.084 72.2587 17.1558C72.1336 17.2276 71.9909 17.2629 71.8467 17.2579V17.6773H76.7436V17.2579C76.6039 17.2672 76.4648 17.2315 76.3468 17.156C76.2289 17.0806 76.1382 16.9693 76.0881 16.8386C75.9478 16.4324 75.8855 16.0033 75.9045 15.574V8.68085C75.8737 8.23491 75.9408 7.78765 76.1012 7.37037C76.1606 7.25063 76.2553 7.15194 76.3725 7.08752C76.4896 7.02311 76.6237 6.99605 76.7567 7.00998V6.57753H71.8467V6.97067C71.9886 6.96384 72.1293 6.99867 72.2517 7.07086C72.374 7.14305 72.4725 7.24944 72.535 7.37692C72.7048 7.78044 72.7788 8.21775 72.7513 8.65464V9.59163H69.6965V8.68085C69.6639 8.23306 69.738 7.78393 69.9128 7.37037C69.9763 7.2522 70.071 7.15369 70.1866 7.08553C70.3021 7.01738 70.4342 6.98218 70.5684 6.98377V6.57753H65.7042V6.97067C66.268 6.97067 66.5499 7.54073 66.5499 8.6874V15.5478C66.5764 15.993 66.5117 16.4389 66.3598 16.8582C66.3044 16.9829 66.2114 17.0871 66.0939 17.1564C65.9764 17.2257 65.8402 17.2566 65.7042 17.2448V17.6642H70.6012V17.2448C70.4538 17.2593 70.3055 17.2281 70.1765 17.1554C70.0475 17.0827 69.944 16.9721 69.8801 16.8386C69.732 16.4048 69.6696 15.9464 69.6965 15.4888V10.699ZM59.9027 12.8023C59.5877 12.5497 59.2333 12.3505 58.8538 12.2126C58.5097 12.0838 58.1461 12.0151 57.7787 12.0095L58.7489 8.84466L59.9027 12.8023ZM57.2805 13.4117L57.936 13.4575L58.5195 13.5755C58.9204 13.685 59.292 13.8819 59.6077 14.1521C59.9533 14.3973 60.251 14.7038 60.4861 15.0563C60.7261 15.4132 60.8685 15.8266 60.8991 16.2554C60.8958 16.4929 60.8153 16.7229 60.6697 16.9107C60.5978 17.0052 60.5044 17.0813 60.3972 17.1326C60.2901 17.1839 60.1722 17.2089 60.0534 17.2055V17.6249H65.3502V17.2055C65.1566 17.1683 64.9759 17.0818 64.8255 16.9544C64.6751 16.827 64.56 16.663 64.4915 16.4782L64.0982 15.3315L62.9903 11.7932C62.892 11.5246 62.7346 11.0397 62.5314 10.3321L62.066 8.79879C61.914 8.34525 61.787 7.8837 61.6858 7.41623C61.6735 7.31041 61.699 7.20366 61.7579 7.11482C61.8334 7.04072 61.9292 6.99057 62.0332 6.97067V6.57753H57.5427V6.97067C57.5927 6.97557 57.6413 6.99035 57.6856 7.01413C57.7299 7.03792 57.769 7.07025 57.8007 7.10925C57.8324 7.14825 57.8561 7.19314 57.8703 7.24134C57.8845 7.28953 57.889 7.34007 57.8836 7.39002C57.8734 7.53989 57.8425 7.68762 57.7918 7.82903L57.6279 8.30081L55.2221 15.3119C55.0687 15.7142 54.8937 16.1079 54.6976 16.4913C54.6031 16.6719 54.4722 16.8309 54.3131 16.9583C54.154 17.0858 53.9702 17.1789 53.7733 17.2317V17.6511H57.1559V17.2317C56.9655 17.2147 56.7837 17.1443 56.6315 17.0286C56.5092 16.8766 56.4442 16.6864 56.448 16.4913C56.451 16.285 56.4818 16.08 56.5397 15.8819L56.7298 15.1219L57.2805 13.4117ZM48.234 12.8023C47.9198 12.5252 47.5606 12.3036 47.172 12.1471C46.8281 12.0178 46.4643 11.949 46.0969 11.9439L47.054 8.8119L48.234 12.8023ZM45.6118 13.4117L46.2673 13.4575L46.8508 13.5755C47.2517 13.685 47.6233 13.8819 47.939 14.1521C48.2861 14.3956 48.5841 14.7024 48.8174 15.0563C49.0574 15.4132 49.1998 15.8266 49.2304 16.2554C49.2301 16.4935 49.1492 16.7244 49.001 16.9107C48.9295 17.0056 48.8362 17.082 48.7289 17.1333C48.6216 17.1847 48.5036 17.2094 48.3848 17.2055V17.6249H53.6816V17.2055C53.4879 17.1683 53.3072 17.0818 53.1568 16.9544C53.0064 16.827 52.8913 16.663 52.8228 16.4782L52.4098 15.3053L51.3019 11.767C51.2036 11.4984 51.0463 11.0135 50.843 10.3058L50.3973 8.79879C50.2453 8.34525 50.1183 7.8837 50.0171 7.41623C50.0048 7.31041 50.0304 7.20366 50.0892 7.11482C50.1668 7.0399 50.2649 6.98973 50.371 6.97067V6.57753H45.8871V6.97067C45.987 6.98219 46.0782 7.03277 46.1409 7.11136C46.2036 7.18995 46.2325 7.29014 46.2215 7.39002C46.2112 7.53989 46.1803 7.68762 46.1297 7.82903L45.9658 8.30081L43.5534 15.3119C43.4001 15.7142 43.225 16.1079 43.029 16.4913C42.9348 16.671 42.8048 16.8294 42.647 16.9567C42.4891 17.0841 42.3067 17.1777 42.1112 17.2317V17.6511H45.4872V17.2317C45.2968 17.2147 45.115 17.1443 44.9628 17.0286C44.8405 16.8766 44.7755 16.6864 44.7793 16.4913C44.7858 16.2853 44.8166 16.0807 44.871 15.8819L45.0874 15.1219L45.6118 13.4117ZM38.3287 11.2887L39.0236 10.0765L40.0069 8.44496C40.2088 8.10392 40.4438 7.78351 40.7083 7.48831C40.9772 7.20382 41.3361 7.02095 41.7244 6.97067V6.57753H38.3287V6.97067C38.5236 7.00602 38.7103 7.07711 38.8794 7.18035C38.9366 7.22503 38.982 7.283 39.0117 7.34924C39.0414 7.41547 39.0545 7.48795 39.0498 7.56039C39.0128 7.73463 38.9556 7.90395 38.8794 8.06492C38.7876 8.25494 38.7155 8.40565 38.6565 8.51704C38.5975 8.62843 38.4991 8.78569 38.3746 8.97571L37.6535 10.1486L36.6439 8.28115L36.4866 7.9994C36.4072 7.84599 36.3561 7.67951 36.3358 7.50797C36.3303 7.43195 36.3436 7.35574 36.3745 7.28605C36.4053 7.21635 36.4528 7.1553 36.5128 7.10827C36.6481 7.01146 36.8121 6.96299 36.9783 6.97067V6.57753H31.4258V6.97067C31.9581 7.09533 32.4252 7.41284 32.7369 7.8618C33.0615 8.3207 33.3487 8.80496 33.5957 9.30988L34.9068 11.767L33.2023 14.8336L32.6648 15.7247L32.0814 16.5306C31.9114 16.737 31.7127 16.9179 31.4914 17.0679C31.3298 17.1751 31.1411 17.2342 30.9473 17.2383V17.6576H34.4151V17.2383C34.254 17.2064 34.0991 17.1489 33.9562 17.0679C33.85 16.9472 33.7958 16.7894 33.8054 16.6289C33.837 16.2645 33.9418 15.9101 34.1135 15.5871L34.5986 14.6239L35.5361 12.8678L36.7816 15.1743L37.1487 15.8623C37.2634 16.0934 37.3303 16.3452 37.3454 16.6027C37.3503 16.6939 37.3303 16.7848 37.2876 16.8656C37.2449 16.9464 37.181 17.014 37.1028 17.0614C36.9664 17.1522 36.8077 17.2043 36.6439 17.2121V17.6314H42.2489V17.2121C41.924 17.1523 41.6337 16.9721 41.436 16.7075C41.249 16.4914 41.0883 16.2539 40.9574 15.9999L40.4986 15.2791L38.3287 11.2887Z" fill="#231F20"/>
    <path fill-rule="evenodd" clip-rule="evenodd" d="M2.58896 9.10262C2.59387 9.08617 2.59883 9.06973 2.60383 9.0533L5.46787 11.9491L2.60383 14.7886C2.32139 13.8603 2.17921 12.9006 2.17729 11.9407C1.50275 12.5811 0.962772 13.3497 0.589036 14.2015C0.213777 15.0567 0.0137206 15.9784 0.000681318 16.9122C-0.0123579 17.8461 0.161884 18.773 0.513118 19.6384C0.864351 20.5037 1.38545 21.29 2.04565 21.9506C2.70585 22.6113 3.49175 23.1329 4.35696 23.4848C5.22216 23.8367 6.14911 24.0117 7.08307 23.9994C8.01703 23.9871 8.93906 23.7878 9.7947 23.4133C10.6469 23.0403 11.416 22.5011 12.057 21.8271C11.2013 21.8268 10.3457 21.7157 9.51179 21.4938C9.41896 21.4691 9.3264 21.443 9.23413 21.4156C9.21764 21.4107 9.20116 21.4057 9.18469 21.4007L12.089 18.5049L14.9369 21.4007C14.0033 21.6838 13.0382 21.8259 12.0731 21.8271C13.3835 23.133 15.1582 23.8664 17.0086 23.8664C18.8628 23.8664 20.6411 23.1299 21.9523 21.8189C23.2634 20.5079 24 18.7299 24 16.8759C24 15.0258 23.2665 13.2513 21.9604 11.9411C21.9608 12.8046 21.8476 13.6681 21.621 14.509C21.5981 14.5939 21.574 14.6787 21.5488 14.7632C21.5439 14.7797 21.5389 14.7962 21.5339 14.8128L18.6376 11.925L21.5339 9.07743C21.8162 10.0056 21.9584 10.9651 21.9604 11.9248C22.606 11.2785 23.118 10.5115 23.4672 9.66743C23.8179 8.81981 23.9975 7.91122 23.9957 6.99393C23.998 5.6108 23.5895 4.25813 22.8218 3.10751C22.0541 1.95689 20.962 1.06016 19.6839 0.531058C18.4058 0.00195977 16.9993 -0.135663 15.6428 0.135645C14.2901 0.406214 13.0479 1.07133 12.0729 2.04695C12.4209 2.04709 12.7689 2.06556 13.1155 2.10235C13.7157 2.16608 14.3116 2.28479 14.8954 2.45847C14.9119 2.46339 14.9284 2.46835 14.945 2.47336L12.0407 5.32895L9.19274 2.47336C10.1265 2.19025 11.0917 2.04812 12.0569 2.04696C11.412 1.39889 10.6453 0.884703 9.80078 0.53403C8.95282 0.181916 8.04338 0.00167108 7.1252 0.0037544C5.74187 0.00141782 4.38902 0.409933 3.23823 1.17748C2.08745 1.94503 1.19059 3.03703 0.661419 4.31497C0.132247 5.5929 -0.00539552 6.99919 0.265951 8.35546C0.536534 9.70791 1.20165 10.9498 2.17727 11.9247C2.17704 11.3211 2.23227 10.7175 2.34296 10.1216C2.40662 9.77888 2.48862 9.43874 2.58896 9.10262Z" fill="#174722"/>
    <path d="M12.065 8.55441C12.1859 8.55441 12.3041 8.59027 12.4047 8.65744C12.5052 8.72461 12.5836 8.82009 12.6298 8.9318C12.6761 9.04351 12.6882 9.16643 12.6646 9.28502C12.6411 9.4036 12.5828 9.51254 12.4973 9.59803C12.4118 9.68353 12.3029 9.74175 12.1842 9.76534C12.0656 9.78893 11.9427 9.77682 11.831 9.73055C11.7193 9.68428 11.6238 9.60593 11.5566 9.50539C11.4894 9.40486 11.4535 9.28666 11.4535 9.16575C11.4535 9.00361 11.518 8.84812 11.6326 8.73347C11.7473 8.61882 11.9028 8.55441 12.065 8.55441ZM12.065 6.83301H12.1535C12.6877 6.84759 13.2007 7.04578 13.6059 7.39422C14.0112 7.74265 14.284 8.22005 14.3785 8.74605C14.4729 9.27204 14.3832 9.81452 14.1245 10.2821C13.8658 10.7498 13.4538 11.114 12.958 11.3135C12.3787 11.5548 11.7351 11.6915 11.1398 11.9007C10.6859 12.0581 10.279 12.3272 9.95636 12.6831C9.63375 13.0391 9.40588 13.4704 9.2937 13.9375C9.18153 14.4045 9.18866 14.8923 9.31444 15.3559C9.44022 15.8195 9.68061 16.244 10.0135 16.5903C8.94859 16.1154 8.0786 15.29 7.54844 14.2516C7.01828 13.2132 6.85995 12.0245 7.09983 10.8836C7.33971 9.7427 7.96332 8.71841 8.86677 7.98136C9.77022 7.24432 10.899 6.83903 12.065 6.83301ZM12.065 15.3113C11.944 15.3113 11.8258 15.2755 11.7253 15.2083C11.6247 15.1411 11.5464 15.0456 11.5001 14.9339C11.4538 14.8222 11.4417 14.6993 11.4653 14.5807C11.4889 14.4621 11.5471 14.3532 11.6326 14.2677C11.7181 14.1822 11.8271 14.124 11.9457 14.1004C12.0643 14.0768 12.1872 14.0889 12.2989 14.1352C12.4107 14.1814 12.5062 14.2598 12.5733 14.3603C12.6405 14.4609 12.6764 14.5791 12.6764 14.7C12.6764 14.8621 12.612 15.0176 12.4973 15.1323C12.3826 15.2469 12.2271 15.3113 12.065 15.3113ZM12.065 17.0327H11.9765C11.4422 17.0181 10.9292 16.8199 10.524 16.4715C10.1187 16.1231 9.84592 15.6457 9.75147 15.1197C9.65703 14.5937 9.74671 14.0512 10.0054 13.5836C10.2642 13.116 10.6761 12.7517 11.172 12.5522C11.7512 12.319 12.3948 12.1822 12.9982 11.9731C13.4588 11.8177 13.8724 11.548 14.2003 11.1892C14.5282 10.8305 14.7597 10.3943 14.873 9.9217C14.9864 9.44907 14.9779 8.95541 14.8484 8.48695C14.7189 8.01849 14.4726 7.59057 14.1325 7.24325C15.1987 7.71877 16.0694 8.54555 16.5993 9.58557C17.1293 10.6256 17.2864 11.8159 17.0444 12.9577C16.8024 14.0996 16.176 15.1239 15.2698 15.8597C14.3636 16.5955 13.2323 17.0303 12.065 17.0327Z" fill="#D2AB67"/>
    <path d="M12.0731 9.79289C12.1979 9.79448 12.3203 9.75883 12.4248 9.69051C12.5292 9.62218 12.6108 9.52428 12.6593 9.40931C12.7078 9.29434 12.7209 9.16752 12.697 9.04507C12.673 8.92261 12.6131 8.81008 12.5249 8.72186C12.4366 8.63363 12.3241 8.57371 12.2016 8.54976C12.0791 8.5258 11.9523 8.53891 11.8373 8.58739C11.7223 8.63587 11.6244 8.71753 11.5561 8.82193C11.4877 8.92634 11.4521 9.04874 11.4537 9.17351C11.4557 9.33713 11.5217 9.49346 11.6374 9.60917C11.7531 9.72488 11.9095 9.7908 12.0731 9.79289Z" fill="#174722"/>
    <path d="M12.0512 15.3388C12.1759 15.3404 12.2984 15.3047 12.4028 15.2364C12.5072 15.1681 12.5889 15.0702 12.6374 14.9552C12.6859 14.8402 12.699 14.7134 12.675 14.591C12.651 14.4685 12.5911 14.356 12.5029 14.2678C12.4146 14.1795 12.3021 14.1196 12.1796 14.0957C12.0571 14.0717 11.9303 14.0848 11.8153 14.1333C11.7003 14.1818 11.6024 14.2634 11.5341 14.3678C11.4658 14.4722 11.4301 14.5946 11.4317 14.7194C11.4338 14.883 11.4997 15.0394 11.6154 15.1551C11.7312 15.2708 11.8875 15.3367 12.0512 15.3388Z" fill="#174722"/>
</svg>